<?xml version="1.0" standalone="no"?>
<!DOCTYPE svg PUBLIC "-//W3C//DTD SVG 20010904//EN"
 "http://www.w3.org/TR/2001/REC-SVG-20010904/DTD/svg10.dtd">
<svg version="1.0" xmlns="http://www.w3.org/2000/svg"
 width="1600.000000pt" height="553.000000pt" viewBox="0 0 1600.000000 553.000000"
 preserveAspectRatio="xMidYMid meet">

<g transform="translate(0.000000,553.000000) scale(0.100000,-0.100000)"
fill="#000000" stroke="none">
<path d="M0 2765 l0 -2765 8000 0 8000 0 0 2765 0 2765 -8000 0 -8000 0 0
-2765z m4078 2300 c74 -33 123 -83 162 -167 42 -88 54 -178 47 -353 -14 -352
-161 -1029 -336 -1547 -30 -89 -36 -118 -26 -118 8 0 49 11 92 25 103 33 143
32 177 -1 20 -20 26 -37 26 -69 0 -23 -34 -249 -75 -502 -41 -254 -90 -581
-110 -726 -72 -543 -112 -716 -201 -863 -117 -195 -229 -279 -411 -311 -74
-13 -237 -14 -1132 -10 -1162 5 -1145 4 -1288 72 -135 63 -215 175 -268 375
-33 126 -51 254 -75 528 -11 125 -36 371 -55 547 -45 418 -85 793 -92 877 -6
64 -5 68 23 95 17 15 38 33 48 38 17 10 17 13 1 70 -23 78 -16 206 15 290 41
109 103 194 193 266 l47 38 -37 27 c-21 15 -53 39 -71 52 -43 31 -56 65 -42
108 15 44 54 74 97 74 47 0 139 -50 211 -116 57 -51 60 -52 98 -43 63 15 252
12 326 -5 139 -32 277 -117 352 -216 l39 -52 28 89 c14 48 36 114 48 145 11
32 21 76 21 98 0 39 -1 40 -27 33 -52 -15 -101 -8 -127 16 -25 24 -47 84 -117
326 -39 138 -35 168 29 203 71 40 369 161 497 204 144 48 317 88 378 88 28 0
50 -6 63 -19 23 -21 164 -407 164 -447 0 -34 -25 -69 -66 -93 -31 -18 -33 -23
-24 -42 15 -27 212 -172 221 -162 4 5 28 58 54 118 66 153 230 481 297 595
101 172 215 308 323 385 127 91 207 116 345 112 78 -3 106 -9 158 -32z m3947
-710 c290 -75 415 -294 415 -722 -1 -223 -24 -345 -94 -488 -71 -143 -180
-241 -327 -292 -101 -35 -299 -44 -415 -18 -218 47 -354 182 -413 410 -48 182
-48 488 0 672 82 314 309 472 659 458 63 -2 142 -11 175 -20z m4153 0 c150
-36 277 -134 336 -259 94 -197 114 -553 45 -806 -47 -176 -159 -327 -296 -398
-131 -69 -341 -92 -507 -57 -198 42 -341 175 -401 375 -40 135 -56 388 -35
560 43 349 218 552 518 600 76 12 262 4 340 -15z m2948 -4 c88 -22 178 -58
224 -91 27 -19 30 -27 30 -79 0 -66 -13 -142 -36 -218 l-17 -53 -103 0 c-121
0 -119 -1 -138 114 l-12 71 -50 13 c-73 20 -221 19 -266 -1 -84 -38 -143 -114
-173 -222 -22 -81 -31 -342 -16 -459 22 -162 78 -276 159 -323 59 -35 161 -42
266 -19 l76 17 0 125 0 125 -37 15 c-21 9 -53 27 -71 41 -33 25 -34 27 -27 82
3 31 9 71 12 89 l5 32 258 0 258 0 6 -37 c22 -149 22 -149 -46 -184 l-38 -19
0 -205 0 -204 -27 -19 c-53 -37 -135 -73 -211 -94 -109 -28 -386 -36 -492 -14
-215 46 -352 189 -404 424 -41 183 -39 479 4 648 67 262 246 424 515 468 62
10 271 -4 351 -23z m-9911 -84 c11 -87 11 -87 -15 -112 -14 -13 -42 -31 -62
-40 l-38 -15 0 -504 0 -503 41 -19 c85 -38 86 -40 74 -146 l-10 -93 -260 0
-260 0 -11 90 c-13 104 -10 111 62 146 l44 21 0 503 0 503 -54 31 c-30 16 -56
34 -59 38 -2 4 1 50 6 101 l10 92 261 -2 261 -3 10 -88z m723 6 c12 -101 12
-101 -62 -143 -39 -23 -88 -76 -237 -260 l-188 -231 176 -265 c97 -145 182
-264 189 -264 29 0 128 -44 154 -69 l28 -26 -12 -90 -11 -90 -184 0 -185 0
-243 394 c-134 217 -243 398 -243 402 0 4 79 111 176 239 97 128 178 238 180
244 2 6 -15 22 -37 34 l-41 24 6 51 c4 29 9 71 12 95 l6 42 253 0 252 0 11
-87z m652 79 c0 -5 5 -46 11 -91 13 -95 11 -100 -63 -137 l-48 -24 0 -510 0
-510 174 0 174 0 12 38 c7 20 23 57 37 81 l25 43 57 -6 c31 -4 68 -9 84 -12
l27 -6 0 -194 0 -194 -504 0 -505 0 -7 58 c-4 31 -8 77 -8 101 -1 44 0 44 56
75 l58 31 0 503 0 502 -27 11 c-16 6 -43 22 -61 36 -37 28 -37 33 -16 176 l6
37 259 0 c142 0 259 -4 259 -8z m2552 -164 c48 -95 156 -308 241 -473 105
-206 164 -333 187 -407 41 -128 58 -129 40 -1 -6 48 -14 248 -17 444 l-6 357
-22 10 c-12 6 -38 24 -57 40 l-34 30 10 86 9 86 217 0 218 0 5 -27 c3 -16 9
-56 12 -90 l7 -61 -42 -31 c-23 -17 -51 -33 -61 -36 -18 -6 -19 -27 -19 -646
l0 -639 -169 0 c-123 0 -171 3 -179 13 -10 13 -248 471 -393 757 -45 91 -102
219 -125 285 -48 136 -64 137 -44 3 7 -47 15 -240 17 -445 l5 -361 39 -17 c21
-10 47 -27 57 -39 18 -19 19 -27 8 -106 l-11 -85 -216 -3 -217 -2 -12 85 c-12
85 -12 87 11 112 13 14 41 34 62 44 l37 19 0 509 0 509 -32 13 c-18 7 -46 25
-63 41 l-32 27 9 73 c5 40 11 79 13 86 3 9 59 12 232 12 l228 0 87 -172z
m2118 12 c0 -145 -2 -160 -17 -161 -10 0 -42 -4 -71 -8 -58 -8 -66 -3 -96 57
l-17 32 -129 0 -130 0 0 -514 0 -514 44 -21 c75 -37 79 -46 66 -142 -6 -46
-14 -87 -16 -91 -3 -4 -119 -8 -259 -8 l-254 0 -7 47 c-4 27 -7 72 -8 102 l-1
54 57 31 58 31 0 513 0 512 -130 0 -129 0 -17 -32 c-25 -50 -45 -68 -68 -63
-12 2 -42 7 -68 10 l-48 6 0 160 0 159 620 0 620 0 0 -160z m2058 -52 c274
-530 380 -748 408 -837 33 -104 62 -137 50 -57 -20 132 -26 249 -26 538 0 302
-1 317 -19 323 -10 3 -38 19 -61 36 -47 34 -44 16 -24 164 l6 45 218 0 218 0
6 -57 c4 -32 9 -70 12 -85 4 -22 -1 -34 -27 -57 -18 -17 -45 -35 -61 -42 l-28
-11 -2 -637 -3 -636 -173 0 -174 0 -237 463 c-148 287 -250 499 -271 560 -49
145 -50 146 -59 136 -5 -5 -2 -52 5 -104 8 -62 13 -218 13 -447 l1 -353 38
-19 c20 -11 48 -29 61 -41 21 -21 23 -28 16 -89 -12 -124 14 -111 -231 -111
l-214 0 -6 25 c-3 14 -7 58 -8 98 l-1 72 58 34 57 34 0 506 0 507 -37 17 c-21
9 -51 27 -66 39 l-28 23 12 88 12 87 228 0 227 0 110 -212z m-5853 -1485 c4
-10 97 -279 207 -598 110 -319 207 -599 215 -622 11 -33 22 -44 47 -53 18 -5
47 -23 65 -38 l32 -27 -12 -92 -12 -93 -258 0 -257 0 -6 27 c-3 16 -8 56 -12
91 -5 57 -4 66 16 87 12 13 35 29 51 35 16 7 29 15 29 19 0 4 -13 45 -28 91
l-29 85 -220 3 -220 2 -23 -77 c-13 -43 -25 -83 -27 -90 -3 -6 13 -21 34 -31
66 -34 76 -52 69 -124 -4 -35 -9 -75 -12 -91 l-6 -27 -251 2 -252 3 -11 90
c-14 107 -12 110 80 154 l61 29 210 631 210 631 151 0 c135 0 153 -2 159 -17z
m-2090 -515 c104 -288 197 -556 205 -597 16 -76 36 -102 44 -59 2 13 9 48 16
79 9 47 148 458 331 982 l41 117 248 0 247 0 12 -86 c14 -100 13 -101 -66
-146 l-53 -30 0 -499 0 -499 38 -19 c86 -46 86 -47 76 -152 l-9 -94 -249 -3
c-184 -2 -252 1 -257 9 -4 7 -10 48 -14 91 -7 73 -5 81 14 102 12 13 39 31 60
41 l39 17 4 432 c3 237 8 439 12 449 6 11 4 17 -6 17 -8 0 -22 -31 -37 -87
-30 -112 -348 -1054 -359 -1065 -5 -5 -73 -7 -151 -6 l-143 3 -170 470 c-93
259 -181 517 -197 574 -15 58 -33 107 -41 109 -10 4 -11 -3 -6 -24 5 -16 10
-221 13 -455 l5 -427 38 -17 c22 -10 49 -28 61 -41 22 -24 22 -26 3 -157 l-6
-37 -216 2 -217 3 -11 80 c-14 95 -8 109 60 146 l46 24 0 511 0 511 -39 18
c-22 10 -50 28 -62 41 -22 24 -22 26 -3 157 l6 37 252 0 252 0 189 -522z
m3550 499 c264 -57 359 -168 360 -417 0 -99 -2 -109 -33 -172 -40 -81 -120
-158 -217 -210 l-68 -36 40 -20 c60 -31 93 -75 179 -241 l79 -152 61 -30 c86
-40 86 -40 73 -142 l-12 -87 -187 0 -187 0 -133 283 c-73 155 -141 294 -152
310 -19 26 -23 27 -109 27 l-89 0 2 -172 3 -172 55 -16 c30 -9 75 -27 99 -39
l44 -23 -7 -85 c-4 -46 -10 -91 -13 -99 -4 -12 -54 -14 -302 -14 l-297 0 -11
93 c-13 106 -12 107 59 143 l48 24 0 504 0 504 -44 21 c-73 36 -76 42 -63 149
l11 94 370 -5 c279 -4 388 -9 441 -20z m1713 -139 c3 -177 11 -161 -90 -173
l-56 -6 -27 45 -27 46 -129 0 -129 0 0 -510 0 -510 48 -24 c71 -36 73 -41 62
-127 -5 -41 -10 -82 -10 -91 0 -17 -19 -18 -260 -18 l-259 0 -6 34 c-4 18 -7
64 -8 102 l-2 68 58 30 57 29 0 509 0 508 -134 0 c-124 0 -135 -2 -141 -19 -3
-11 -15 -31 -26 -46 -19 -23 -26 -25 -68 -20 -101 13 -91 -6 -91 175 l0 160
618 -2 617 -3 3 -157z"/>
<path d="M3830 4886 c-184 -51 -294 -179 -527 -609 -173 -319 -336 -726 -469
-1170 -20 -66 -38 -125 -40 -131 -3 -8 48 -11 173 -11 172 -1 186 -2 412 -48
129 -27 246 -47 260 -45 22 3 30 15 63 103 21 55 38 103 38 106 0 3 -35 12
-77 18 -43 7 -91 14 -106 16 -16 3 -98 -2 -183 -10 -103 -10 -162 -11 -179 -5
-33 12 -51 50 -37 77 16 30 84 72 159 100 93 35 290 44 412 19 46 -10 85 -16
86 -14 7 7 75 236 75 252 0 17 -11 18 -172 13 -127 -3 -200 -10 -275 -27 -56
-12 -109 -20 -117 -17 -8 3 -22 17 -32 32 -14 21 -14 30 -4 55 10 24 30 39 94
69 134 64 297 90 461 73 50 -6 92 -6 95 -2 11 18 52 231 46 237 -3 4 -44 9
-91 11 -63 3 -127 -3 -250 -23 -180 -30 -199 -29 -231 19 -25 39 -11 69 50
110 118 82 286 117 464 97 57 -7 105 -11 107 -9 1 2 9 41 18 88 67 353 41 567
-76 621 -48 21 -83 22 -147 5z"/>
<path d="M2330 4420 c-58 -15 -151 -45 -205 -65 -101 -38 -293 -122 -309 -136
-10 -9 39 -175 54 -184 6 -3 10 -2 10 3 0 14 86 57 175 87 83 28 417 115 444
115 43 1 45 14 11 114 -37 112 -25 108 -180 66z"/>
<path d="M2365 4056 c-38 -13 -110 -39 -160 -59 -49 -19 -98 -37 -107 -41 -16
-5 -16 -8 0 -58 29 -91 23 -187 -20 -298 -35 -92 -75 -246 -66 -256 3 -2 29 9
59 25 85 46 170 64 267 57 45 -3 120 -9 167 -12 106 -8 152 7 217 74 36 36 54
67 77 129 l30 82 -47 41 c-25 23 -87 65 -137 95 -110 65 -129 85 -155 159 -19
57 -36 86 -49 86 -3 -1 -37 -11 -76 -24z"/>
<path d="M1183 3492 c-10 -6 -10 -17 -3 -42 28 -96 -1 -160 -71 -160 -48 0
-68 17 -98 85 l-26 58 -58 -53 c-32 -29 -67 -70 -78 -91 -26 -52 -49 -152 -49
-218 l0 -53 53 6 c123 15 340 -25 627 -118 216 -70 216 -70 225 -48 14 31 18
237 6 291 -37 174 -167 304 -339 340 -61 13 -171 14 -189 3z m215 -164 c17
-15 15 -68 -5 -90 -20 -22 -66 -24 -87 -2 -25 25 -20 69 11 93 26 21 53 21 81
-1z m-314 -140 c21 -29 20 -51 -2 -78 -22 -27 -65 -29 -92 -5 -42 38 -12 105
45 105 24 0 39 -7 49 -22z m496 -58 c28 -28 25 -64 -6 -89 -34 -27 -52 -26
-81 1 -29 27 -29 55 -1 85 26 28 61 30 88 3z"/>
<path d="M2237 3229 c-61 -14 -112 -45 -171 -103 -64 -62 -64 -51 -5 -278 l10
-38 47 6 c44 6 460 109 467 116 4 4 75 266 75 278 0 5 -24 6 -52 3 -29 -3
-104 2 -166 11 -124 18 -149 18 -205 5z"/>
<path d="M854 2810 c-57 -8 -151 -38 -158 -49 -3 -4 8 -93 24 -197 38 -245
176 -1295 190 -1444 13 -139 25 -205 51 -287 24 -74 84 -146 135 -163 27 -9
323 -12 1178 -12 l1141 0 58 22 c72 27 119 67 168 142 86 134 84 123 259 1243
49 319 92 590 95 601 5 20 3 21 -43 11 -26 -5 -112 -10 -192 -10 -147 1 -180
5 -505 68 -158 31 -360 42 -465 26 -41 -6 -167 -36 -280 -66 -292 -77 -364
-89 -560 -89 -196 1 -246 10 -509 95 -226 73 -311 95 -421 108 -92 12 -92 12
-166 1z m1532 -552 c86 -21 153 -107 154 -195 0 -80 -52 -201 -195 -452 -114
-202 -139 -255 -131 -286 12 -47 34 -43 236 49 125 57 494 249 665 345 109 62
140 65 191 18 30 -28 37 -42 41 -83 7 -68 -9 -85 -177 -184 -296 -176 -766
-383 -935 -410 -103 -17 -197 29 -236 114 -26 57 -25 159 2 239 26 78 158 335
238 462 61 98 66 110 55 139 -13 35 -40 37 -146 12 -205 -49 -360 -119 -523
-236 -155 -112 -240 -144 -279 -104 -77 77 125 291 412 437 255 130 468 176
628 135z"/>
<path d="M7720 4117 c-175 -49 -237 -198 -228 -547 5 -187 21 -263 72 -356 58
-104 144 -151 261 -141 201 15 295 207 282 572 -12 315 -98 459 -287 479 -32
3 -74 0 -100 -7z"/>
<path d="M11881 4120 c-111 -23 -185 -113 -218 -264 -22 -99 -22 -384 0 -484
33 -148 96 -242 189 -282 43 -18 65 -22 125 -18 172 11 260 137 283 407 24
269 -28 496 -132 585 -59 51 -161 74 -247 56z"/>
<path d="M7275 2313 c-12 -102 -34 -193 -86 -361 -28 -90 -49 -166 -46 -168 2
-3 72 -3 155 -2 l150 3 -44 140 c-61 192 -83 283 -92 367 -9 90 -28 101 -37
21z"/>
<path d="M8538 2424 c-5 -4 -8 -99 -8 -211 l0 -203 108 0 c115 0 210 18 252
48 38 28 63 87 63 151 0 112 -39 168 -136 195 -59 17 -268 32 -279 20z"/>
</g>
</svg>
